<svg width="48" height="48" viewBox="0 0 48 48" fill="none" xmlns="http://www.w3.org/2000/svg">
  <defs>
    <linearGradient id="grad-trash-full" x1="0%" y1="0%" x2="100%" y2="100%">
      <stop offset="0%" stop-color="#F1F5F9"/>
      <stop offset="100%" stop-color="#E2E8F0"/>
    </linearGradient>
    <filter id="shadow-trash-full">
      <feDropShadow dx="0" dy="2" stdDeviation="2" flood-opacity="0.3"/>
    </filter>
  </defs>
  <!-- Trash can body - fuller appearance -->
  <path d="M 14 18 L 16 40 C 16 42 18 44 20 44 L 28 44 C 30 44 32 42 32 40 L 34 18 Z" fill="url(#grad-trash-full)" filter="url(#shadow-trash-full)"/>
  <!-- Paper pieces visible inside -->
  <rect x="17" y="22" width="6" height="8" rx="1" fill="#3B82F6" opacity="0.6" transform="rotate(-15 20 26)"/>
  <rect x="23" y="24" width="7" height="6" rx="1" fill="#10B981" opacity="0.6" transform="rotate(10 26 27)"/>
  <rect x="18" y="32" width="5" height="6" rx="1" fill="#F59E0B" opacity="0.6" transform="rotate(-8 20 35)"/>
  <rect x="25" y="33" width="6" height="5" rx="1" fill="#A855F7" opacity="0.6" transform="rotate(12 28 35)"/>
  <!-- Trash can lid -->
  <rect x="12" y="14" width="24" height="4" rx="2" fill="url(#grad-trash-full)"/>
  <!-- Handle -->
  <path d="M 18 14 L 18 10 C 18 8 20 6 22 6 L 26 6 C 28 6 30 8 30 10 L 30 14" stroke="#64748B" stroke-width="2" stroke-linecap="round" fill="none"/>
</svg>
